<?xml version="1.0" encoding="utf-8"?>
<!-- Generator: Adobe Illustrator 18.0.0, SVG Export Plug-In . SVG Version: 6.00 Build 0)  -->
<!DOCTYPE svg PUBLIC "-//W3C//DTD SVG 1.1//EN" "http://www.w3.org/Graphics/SVG/1.1/DTD/svg11.dtd">
<svg version="1.1" id="Layer_1" xmlns="http://www.w3.org/2000/svg" xmlns:xlink="http://www.w3.org/1999/xlink" x="0px" y="0px"
	 viewBox="0 0 2500 1000" enable-background="new 0 0 2500 1000" xml:space="preserve">
<g>
	<g>
		<g>
			<path fill="#FFFFFF" d="M730,641.4c-65.6,0-119-53.4-119-119s53.4-119,119-119s119,53.4,119,119S795.7,641.4,730,641.4z
				 M730,453.5c-38,0-69,30.9-69,69s30.9,69,69,69c38,0,69-30.9,69-69S768.1,453.5,730,453.5z"/>
		</g>
		<g>
			
				<rect x="766.3" y="527.5" transform="matrix(0.4837 0.8752 -0.8752 0.4837 924.5309 -462.1968)" fill="#FFFFFF" width="175.4" height="50"/>
		</g>
	</g>
	<g>
		<g>
			<path fill="#FFFFFF" d="M1553.8,641.4c-65.6,0-119-53.4-119-119s53.4-119,119-119s119,53.4,119,119S1619.4,641.4,1553.8,641.4z
				 M1553.8,453.5c-38,0-69,30.9-69,69c0,38,30.9,69,69,69c38,0,69-30.9,69-69C1622.8,484.4,1591.8,453.5,1553.8,453.5z"/>
		</g>
		<g>
			<rect x="1434.8" y="243.1" fill="#FFFFFF" width="50" height="279.3"/>
		</g>
	</g>
	<g>
		<path fill="#FFFFFF" d="M1836.1,641.4c-65.6,0-119-53.4-119-119s53.4-119,119-119s119,53.4,119,119S1901.7,641.4,1836.1,641.4z
			 M1836.1,453.5c-38,0-69,30.9-69,69s30.9,69,69,69s69-30.9,69-69S1874.1,453.5,1836.1,453.5z"/>
	</g>
	<g>
		<path fill="#FFFFFF" d="M2119.1,641.4c-65.6,0-119-53.4-119-119s53.4-119,119-119s119,53.4,119,119S2184.7,641.4,2119.1,641.4z
			 M2119.1,453.5c-38,0-69,30.9-69,69s30.9,69,69,69c38,0,69-30.9,69-69S2157.1,453.5,2119.1,453.5z"/>
	</g>
	<g>
		<g>
			<rect x="963.7" y="517.5" fill="#FFFFFF" width="50" height="123.9"/>
		</g>
		<g>
			<rect x="1152.4" y="517.9" fill="#FFFFFF" width="50" height="123.5"/>
		</g>
		<g>
			<rect x="1340.3" y="517.9" fill="#FFFFFF" width="50" height="123.5"/>
		</g>
		<path fill="#FFFFFF" d="M1271.3,398.5c-65.6,0-119,53.4-119,119c0,39.9,19.8,75.3,50,96.9V517h0c0.2-37.8,31.1-68.5,69-68.5
			c37.9,0,68.7,30.7,69,68.5h0.2v97.2c30.1-21.6,49.8-56.9,49.8-96.7C1390.3,451.8,1336.9,398.5,1271.3,398.5z"/>
		<path fill="#FFFFFF" d="M1082.7,398.5c-65.6,0-119,53.4-119,119c0,39.9,19.7,75.2,49.9,96.8v-96.8h0.1c0-38,30.9-69,69-69
			c38,0,69,30.9,69,69h0.1v96.8c30.2-21.6,49.9-56.9,49.9-96.8C1201.7,451.9,1148.3,398.5,1082.7,398.5z"/>
	</g>
	<g>
		<polygon fill="#FFFFFF" points="305.2,269.4 262,294.4 353.5,452.7 353.5,352.8 		"/>
	</g>
	<g>
		<polygon fill="#FFFFFF" points="341.5,251.4 293.2,264.4 353.5,489.4 353.5,296.2 		"/>
	</g>
	<g>
		<g>
			<path fill="#FFFFFF" d="M514.1,540.2c-7.9,29.5-34.8,51.2-66.7,51.2c-38,0-69-30.9-69-69s30.9-69,69-69c32,0,59,21.9,66.7,51.6
				l48.4-12.6c-13.3-51.1-59.9-89-115.1-89c-65.6,0-119,53.4-119,119s53.4,119,119,119c54.9,0,101.2-37.3,114.9-88L514.1,540.2z"/>
		</g>
		<g>
			<rect x="328.5" y="243.1" fill="#FFFFFF" width="50" height="279.3"/>
		</g>
	</g>
	<g>
		<path fill="#FFFFFF" d="M386.9,698.9c-2.1-2.9-4.8-5-7.9-6.5c-3.1-1.4-6.4-2.1-9.8-2.1c-3.9,0-7.6,0.8-10.9,2.4
			c-3.3,1.6-6.1,3.8-8.6,6.5c-2.4,2.7-4.3,5.8-5.6,9.4c-1.3,3.6-2,7.3-2,11.1c0,4.1,0.7,8,2,11.6c1.3,3.6,3.2,6.7,5.5,9.3
			c2.4,2.6,5.2,4.7,8.5,6.2c3.3,1.5,7,2.3,11,2.3c4.3,0,8.2-0.8,11.6-2.5c3.4-1.7,6.4-4.2,8.9-7.4l6.3,5.3c-3.2,4.3-7,7.4-11.5,9.4
			s-9.6,3-15.2,3c-5.1,0-9.8-0.9-14.2-2.8s-8.2-4.5-11.5-7.8c-3.2-3.3-5.8-7.2-7.6-11.8c-1.8-4.5-2.8-9.5-2.8-14.9
			c0-5.2,0.9-10.1,2.6-14.6c1.8-4.5,4.2-8.5,7.4-11.8c3.2-3.3,7-6,11.4-7.9c4.4-1.9,9.2-2.9,14.5-2.9c4.8,0,9.4,0.9,13.8,2.6
			c4.4,1.7,8.2,4.6,11.2,8.5L386.9,698.9z"/>
		<path fill="#FFFFFF" d="M740.5,756.9c-5.4,0-10.4-0.9-14.9-2.8s-8.4-4.5-11.7-7.8s-5.9-7.2-7.7-11.8c-1.8-4.6-2.8-9.5-2.8-14.9
			c0-5.3,0.9-10.3,2.8-14.8c1.8-4.6,4.4-8.5,7.7-11.8s7.2-5.9,11.7-7.8c4.5-1.9,9.5-2.8,14.9-2.8c5.4,0,10.3,0.9,14.8,2.8
			c4.5,1.9,8.4,4.5,11.7,7.8c3.3,3.3,5.9,7.2,7.7,11.8c1.8,4.6,2.8,9.5,2.8,14.8c0,5.3-0.9,10.3-2.8,14.9c-1.8,4.6-4.4,8.5-7.7,11.8
			c-3.3,3.3-7.2,5.9-11.7,7.8S745.9,756.9,740.5,756.9z M740.5,749.1c4.1,0,7.9-0.8,11.3-2.3c3.4-1.5,6.4-3.6,8.8-6.3
			c2.5-2.7,4.4-5.8,5.8-9.4c1.4-3.6,2.1-7.4,2.1-11.5c0-4.1-0.7-7.9-2.1-11.4c-1.4-3.6-3.3-6.7-5.8-9.4c-2.5-2.7-5.4-4.8-8.8-6.3
			c-3.4-1.5-7.2-2.3-11.3-2.3c-4.1,0-7.9,0.8-11.4,2.3c-3.4,1.5-6.4,3.6-8.8,6.3c-2.5,2.7-4.4,5.8-5.8,9.4c-1.4,3.6-2,7.4-2,11.4
			c0,4.1,0.7,7.9,2,11.5c1.4,3.6,3.3,6.7,5.8,9.4c2.5,2.7,5.4,4.8,8.8,6.3C732.6,748.3,736.4,749.1,740.5,749.1z"/>
		<path fill="#FFFFFF" d="M1089.6,684.3h27.2c2.3,0,4.8,0.3,7.4,0.8c2.6,0.5,5.2,1.4,7.8,2.5c2.6,1.2,5,2.7,7.4,4.5
			c2.4,1.9,4.4,4.1,6.2,6.8c1.8,2.6,3.2,5.7,4.3,9.1c1.1,3.4,1.6,7.3,1.6,11.6c0,4.3-0.5,8.2-1.6,11.7c-1.1,3.4-2.5,6.5-4.3,9.1
			c-1.8,2.6-3.9,4.9-6.2,6.8c-2.4,1.9-4.8,3.4-7.4,4.6c-2.6,1.2-5.2,2-7.8,2.5c-2.6,0.5-5.1,0.8-7.4,0.8h-27.2V684.3z M1098,747.3
			h16c4.1,0,7.8-0.5,11.3-1.6c3.5-1.1,6.5-2.7,9-4.9c2.5-2.2,4.5-5.1,6-8.6c1.5-3.5,2.2-7.6,2.2-12.5c0-4.9-0.7-9-2.2-12.5
			c-1.5-3.5-3.5-6.3-6-8.5c-2.5-2.2-5.5-3.9-9-5c-3.5-1.1-7.2-1.6-11.3-1.6h-16V747.3z"/>
		<path fill="#FFFFFF" d="M1464.9,684.3h8.4v70.8h-8.4V684.3z"/>
		<path fill="#FFFFFF" d="M1790.8,684.3h10.6l41,58.8h0.2v-58.8h8.4v70.8h-10.6l-41-58.8h-0.2v58.8h-8.4V684.3z"/>
		<path fill="#FFFFFF" d="M2228.7,750.3c-4.1,2.3-8.3,3.9-12.8,5s-9.1,1.6-13.7,1.6c-5.5,0-10.6-0.9-15.2-2.7
			c-4.6-1.8-8.6-4.3-11.9-7.6c-3.4-3.3-6-7.2-7.8-11.8c-1.9-4.6-2.8-9.6-2.8-15.2c0-5.6,1-10.7,3-15.2c2-4.6,4.7-8.5,8.1-11.7
			c3.5-3.2,7.5-5.8,12.1-7.6c4.6-1.8,9.6-2.7,14.9-2.7c4.7,0,9.2,0.7,13.5,2.1c4.3,1.4,8.2,3.8,11.5,7.2l-6.3,6.6
			c-2.4-2.6-5.3-4.6-8.8-6c-3.4-1.4-7-2.1-10.6-2.1c-4.1,0-7.8,0.7-11.3,2.2c-3.5,1.5-6.5,3.5-9.1,6.1s-4.6,5.7-6,9.3
			c-1.4,3.6-2.2,7.5-2.2,11.8c0,4.2,0.7,8.1,2.2,11.7c1.4,3.6,3.4,6.7,6,9.4c2.6,2.6,5.7,4.7,9.2,6.1c3.6,1.5,7.6,2.2,11.9,2.2
			c2.9,0,5.9-0.3,9-1c3.1-0.7,6-1.7,8.6-3v-21.7H2204v-7.8h24.7V750.3z"/>
	</g>
</g>
</svg>
